<?xml version="1.0" encoding="utf-8"?>
<!-- Generator: Adobe Illustrator 20.1.0, SVG Export Plug-In . SVG Version: 6.00 Build 0)  -->
<svg version="1.1" id="Layer_1" xmlns="http://www.w3.org/2000/svg" xmlns:xlink="http://www.w3.org/1999/xlink" x="0px" y="0px"
	 width="100%" height="100%" viewBox="0 0 288 216" enable-background="new 0 0 288 216" xml:space="preserve">
<title>CA_Florastor_logo</title>
<linearGradient id="SVGID_1_" gradientUnits="userSpaceOnUse" x1="232.9399" y1="1842.84" x2="232.9399" y2="1886.16" gradientTransform="matrix(-1 0 0 1 263.8199 -1764.51)">
	<stop  offset="0" style="stop-color:#0080C0"/>
	<stop  offset="0.39" style="stop-color:#00588C"/>
	<stop  offset="0.8" style="stop-color:#00335C"/>
	<stop  offset="1" style="stop-color:#00254A"/>
</linearGradient>
<path fill="url(#SVGID_1_)" d="M17.9,61h26v11.2H29.5V89H43v10.7H29.5v27.1H17.9V61z"/>
<linearGradient id="SVGID_2_" gradientUnits="userSpaceOnUse" x1="208.9399" y1="1842.84" x2="208.9399" y2="1886.16" gradientTransform="matrix(-1 0 0 1 263.8199 -1764.51)">
	<stop  offset="0" style="stop-color:#0080C0"/>
	<stop  offset="0.39" style="stop-color:#00588C"/>
	<stop  offset="0.8" style="stop-color:#00335C"/>
	<stop  offset="1" style="stop-color:#00254A"/>
</linearGradient>
<path fill="url(#SVGID_2_)" d="M49.1,59.3h11.6v67.5H49.1V59.3z"/>
<linearGradient id="SVGID_3_" gradientUnits="userSpaceOnUse" x1="181.95" y1="1842.8101" x2="181.95" y2="1886.13" gradientTransform="matrix(-1 0 0 1 263.8199 -1764.51)">
	<stop  offset="0" style="stop-color:#0080C0"/>
	<stop  offset="0.39" style="stop-color:#00588C"/>
	<stop  offset="0.8" style="stop-color:#00335C"/>
	<stop  offset="1" style="stop-color:#00254A"/>
</linearGradient>
<path fill="url(#SVGID_3_)" d="M98.4,102.8c0,19.9-10,24.8-16.6,24.8c-10.4,0-16.6-9-16.6-24.5c0-17.2,8.1-24.8,16.7-24.8
	C92.2,78.3,98.4,87.8,98.4,102.8z M76.8,102.8c0,8.2,1.2,15,5.3,15c3.7,0,4.7-8,4.7-15c0-6.5-1-14.8-4.9-14.8
	C77.7,88,76.8,96.2,76.8,102.8L76.8,102.8z"/>
<linearGradient id="SVGID_4_" gradientUnits="userSpaceOnUse" x1="150.4449" y1="1842.7841" x2="150.4449" y2="1886.1041" gradientTransform="matrix(-1 0 0 1 263.8199 -1764.51)">
	<stop  offset="0" style="stop-color:#0080C0"/>
	<stop  offset="0.39" style="stop-color:#00588C"/>
	<stop  offset="0.8" style="stop-color:#00335C"/>
	<stop  offset="1" style="stop-color:#00254A"/>
</linearGradient>
<path fill="url(#SVGID_4_)" d="M102.7,93.4c0-4.8-0.2-10-0.4-14.3h10.1l0.6,6.9h0.3c1.9-5.1,5.4-7.7,8.6-7.7c0.8,0,1.7,0,2.5,0.2
	v12.7c-0.8-0.2-1.6-0.2-2.5-0.2c-2.5,0-5.8,1.8-7.1,6.8c-0.3,1.6-0.5,3.2-0.4,4.8v24.2h-11.7V93.4z"/>
<linearGradient id="SVGID_5_" gradientUnits="userSpaceOnUse" x1="123.4649" y1="1842.8093" x2="123.4649" y2="1886.1293" gradientTransform="matrix(-1 0 0 1 263.8199 -1764.51)">
	<stop  offset="0" style="stop-color:#0080C0"/>
	<stop  offset="0.39" style="stop-color:#00588C"/>
	<stop  offset="0.8" style="stop-color:#00335C"/>
	<stop  offset="1" style="stop-color:#00254A"/>
</linearGradient>
<path fill="url(#SVGID_5_)" d="M146,126.8l-0.6-4.7h-0.2c-2,3.4-5.6,5.5-9.6,5.5c-6.6,0-11.4-6.1-11.4-14.5
	c0-12.5,10-17.7,19.8-17.8v-1.1c0-3.7-2-6.4-6.1-6.4c-3.2,0-6.3,0.9-8.9,2.7l-2.1-8.6c4.1-2.4,8.7-3.6,13.5-3.6
	c13.2,0,15.3,10.2,15.3,19.8v17.8c0,3.7,0.2,7.3,0.7,10.9L146,126.8z M144.4,103.6c-3.9,0.1-9.2,1.5-9.2,8.1c0,4.8,2.4,6.5,4.2,6.5
	c2.3-0.1,4.3-1.8,4.8-4.1c0.2-0.7,0.3-1.5,0.3-2.2L144.4,103.6z"/>
<linearGradient id="SVGID_6_" gradientUnits="userSpaceOnUse" x1="91.7899" y1="1842.84" x2="91.7899" y2="1886.1599" gradientTransform="matrix(-1 0 0 1 263.8199 -1764.51)">
	<stop  offset="0" style="stop-color:#0080C0"/>
	<stop  offset="0.39" style="stop-color:#00588C"/>
	<stop  offset="0.8" style="stop-color:#00335C"/>
	<stop  offset="1" style="stop-color:#00254A"/>
</linearGradient>
<path fill="url(#SVGID_6_)" d="M161.5,115.3c2.3,1.5,5,2.4,7.8,2.5c3,0,4.7-1.5,4.7-4.3c0-2.4-1.2-4-5.1-6.4
	c-7.1-4.4-8.8-9.4-8.8-13.8c0-8.6,5.6-15,14.3-15c3.1,0,6.1,0.7,8.8,2.2l-2,9.4c-1.8-1.2-3.8-1.9-6-2c-2.2-0.2-4.1,1.4-4.3,3.6
	c0,0.2,0,0.3,0,0.5c0,2.2,1,3.3,5.1,6c6.4,4,8.8,9,8.8,14.4c0,9.8-6.4,15-15.3,15c-3.6,0-7.9-1.1-9.9-2.7L161.5,115.3z"/>
<linearGradient id="SVGID_7_" gradientUnits="userSpaceOnUse" x1="65.945" y1="1842.84" x2="65.945" y2="1886.16" gradientTransform="matrix(-1 0 0 1 263.8199 -1764.51)">
	<stop  offset="0" style="stop-color:#0080C0"/>
	<stop  offset="0.39" style="stop-color:#00588C"/>
	<stop  offset="0.8" style="stop-color:#00335C"/>
	<stop  offset="1" style="stop-color:#00254A"/>
</linearGradient>
<path fill="url(#SVGID_7_)" d="M202,66.2v12.9h8.5v9.1H202v21.8c0,5.6,2.1,6.9,4.4,6.9c1,0,2-0.1,3-0.3l0.1,10
	c-2.3,0.6-4.7,0.9-7.1,0.9c-3.4,0-6.3-0.9-8.3-3c-2.4-2.5-3.7-6.2-3.7-13.7V88.2h-5.1v-9.1h5.1v-9.9L202,66.2z"/>
<linearGradient id="SVGID_8_" gradientUnits="userSpaceOnUse" x1="35.6199" y1="1842.8101" x2="35.6199" y2="1886.13" gradientTransform="matrix(-1 0 0 1 263.8199 -1764.51)">
	<stop  offset="0" style="stop-color:#0080C0"/>
	<stop  offset="0.39" style="stop-color:#00588C"/>
	<stop  offset="0.8" style="stop-color:#00335C"/>
	<stop  offset="1" style="stop-color:#00254A"/>
</linearGradient>
<path fill="url(#SVGID_8_)" d="M244.8,102.8c0,19.9-10,24.8-16.6,24.8c-10.4,0-16.6-9-16.6-24.5c0-17.2,8.1-24.8,16.8-24.8
	C238.6,78.3,244.8,87.8,244.8,102.8z M223.1,102.8c0,8.2,1.1,15,5.3,15c3.7,0,4.7-8,4.7-15c0-6.5-1-14.8-4.9-14.8
	C224,88,223.1,96.2,223.1,102.8L223.1,102.8z"/>
<linearGradient id="SVGID_9_" gradientUnits="userSpaceOnUse" x1="4.1249" y1="1842.7841" x2="4.1249" y2="1886.1041" gradientTransform="matrix(-1 0 0 1 263.8199 -1764.51)">
	<stop  offset="0" style="stop-color:#0080C0"/>
	<stop  offset="0.39" style="stop-color:#00588C"/>
	<stop  offset="0.8" style="stop-color:#00335C"/>
	<stop  offset="1" style="stop-color:#00254A"/>
</linearGradient>
<path fill="url(#SVGID_9_)" d="M249,93.4c0-4.8-0.2-10-0.4-14.3h10.1l0.7,6.9h0.3c2-5.1,5.4-7.7,8.6-7.7c0.8,0,1.7,0,2.5,0.2v12.7
	c-0.8-0.2-1.6-0.2-2.5-0.2c-2.5,0-5.8,1.8-7.1,6.8c-0.3,1.6-0.5,3.2-0.4,4.8v24.2H249V93.4z"/>
<linearGradient id="SVGID_10_" gradientUnits="userSpaceOnUse" x1="-10.8797" y1="1837.6096" x2="-10.8797" y2="1842.8898" gradientTransform="matrix(-1 0 0 1 263.8199 -1764.51)">
	<stop  offset="0" style="stop-color:#0080C0"/>
	<stop  offset="0.39" style="stop-color:#00588C"/>
	<stop  offset="0.8" style="stop-color:#00335C"/>
	<stop  offset="1" style="stop-color:#00254A"/>
</linearGradient>
<path fill="url(#SVGID_10_)" d="M274.7,73.1c1.5,0,2.7,1.2,2.7,2.6s-1.2,2.7-2.6,2.7c-1.5,0-2.7-1.2-2.7-2.6c0,0,0,0,0,0
	c0-1.4,1.1-2.6,2.5-2.6C274.6,73.1,274.6,73.1,274.7,73.1z M274.7,73.6c-1.2,0.1-2,1.1-1.9,2.3c0.1,1,0.9,1.8,1.9,1.9
	c1.1,0,2-1,1.9-2.1c0,0,0,0,0,0C276.6,74.6,275.8,73.7,274.7,73.6C274.7,73.6,274.7,73.6,274.7,73.6L274.7,73.6z M274.3,77.1h-0.6
	v-2.6c0.3-0.1,0.7-0.1,1-0.1c0.3,0,0.6,0,0.9,0.2c0.2,0.1,0.3,0.3,0.2,0.6c0,0.3-0.2,0.6-0.5,0.6l0,0c0.2,0.1,0.4,0.3,0.5,0.6
	c0,0.2,0.1,0.4,0.2,0.6h-0.6c-0.1-0.2-0.2-0.4-0.2-0.6c0-0.2-0.2-0.4-0.5-0.4c0,0,0,0,0,0h-0.3L274.3,77.1z M274.3,75.6h0.3
	c0.3,0,0.6-0.1,0.6-0.4s-0.2-0.4-0.5-0.4c-0.1,0-0.2,0-0.3,0L274.3,75.6z"/>
<path fill="#00254A" d="M17.8,134.3c1.3-0.2,2.5-0.3,3.8-0.3c2.6,0,4.5,0.6,5.7,1.8s2.2,3.2,2.2,6s-0.8,5.1-2.2,6.4
	s-3.6,2.2-6.3,2.2c-1.1,0-2.2-0.1-3.2-0.2V134.3z M19.8,148.6c0.6,0.1,1.1,0.1,1.7,0.1c3.7,0,6-2.2,6-6.9c0-3.9-1.9-6.3-5.7-6.3
	c-0.7,0-1.3,0-2,0.2L19.8,148.6z"/>
<path fill="#00254A" d="M39.5,147.5c0,0.9,0,1.8,0.2,2.7h-1.8l-0.2-1.4h-0.1c-0.7,1-1.9,1.7-3.2,1.6c-1.7,0.1-3.2-1.3-3.3-3.1
	c0-0.1,0-0.2,0-0.3c0-2.8,2.4-4.3,6.3-4.3v-0.3c0-1.1-0.3-2.7-2.4-2.7c-0.9,0-1.9,0.3-2.7,0.8l-0.5-1.4c1-0.6,2.2-1,3.5-0.9
	c3.2,0,4,2.2,4,4.6L39.5,147.5z M37.5,144.3c-1.9,0-4.4,0.3-4.4,2.6c-0.1,1,0.6,1.9,1.5,2c0.1,0,0.2,0,0.3,0c1.2,0,2.2-0.8,2.5-1.9
	c0.1-0.2,0.1-0.4,0.1-0.7L37.5,144.3z"/>
<path fill="#00254A" d="M43.7,136.7c-0.7,0-1.2-0.5-1.2-1.2c0,0,0,0,0-0.1c0-0.7,0.5-1.3,1.2-1.3c0,0,0.1,0,0.1,0
	c0.7,0,1.2,0.5,1.2,1.2c0,0,0,0.1,0,0.1c0,0.7-0.5,1.2-1.1,1.3C43.7,136.7,43.7,136.7,43.7,136.7L43.7,136.7z M42.7,150.2v-11.6h2
	v11.6L42.7,150.2z"/>
<path fill="#00254A" d="M47.9,133.3h2v16.9h-2V133.3z"/>
<path fill="#00254A" d="M54,138.6l2.2,6.8c0.2,0.8,0.5,1.7,0.6,2.4H57c0.2-0.7,0.4-1.6,0.6-2.4l2-6.8h2.1l-2.8,8
	c-1.3,3.7-2.2,5.9-3.6,7.3c-0.7,0.7-1.5,1.2-2.4,1.5l-0.6-1.7c0.7-0.3,1.3-0.7,1.8-1.1c0.6-0.7,1.2-1.4,1.5-2.2
	c0.1-0.2,0.1-0.3,0.2-0.5c0-0.2-0.1-0.3-0.1-0.5l-3.9-10.7L54,138.6z"/>
<path fill="#00254A" d="M66.4,133.1l-1.3,1.7l0,0l2-0.3v0.9l-2-0.2l0,0l1.3,1.8l-0.8,0.5l-0.8-1.9l0,0l-0.9,1.9L63,137l1.3-1.7l0,0
	l-2,0.3v-0.9l2,0.2l0,0l-1.3-1.8l0.8-0.5l0.9,1.9l0,0l0.8-1.9L66.4,133.1z"/>
<path fill="#00254A" d="M73.9,134.2c1.2-0.2,2.4-0.3,3.6-0.3c1.5-0.1,3,0.3,4.2,1.3c0.9,0.9,1.4,2.1,1.3,3.4
	c0.1,1.2-0.3,2.5-1.1,3.4c-1.2,1.2-2.9,1.9-4.6,1.8c-0.5,0-0.9,0-1.4-0.1v6.5h-2V134.2z M75.9,142c0.5,0.1,0.9,0.2,1.4,0.1
	c2.3,0,3.7-1.2,3.7-3.4c0-2-1.3-3.2-3.5-3.2c-0.6,0-1.1,0-1.7,0.1V142z"/>
<path fill="#00254A" d="M85.2,142c0-1.2,0-2.4-0.1-3.4h1.8l0.1,2.2h0c0.4-1.4,1.6-2.3,3-2.4c0.2,0,0.3,0,0.5,0v2c-0.2,0-0.4,0-0.6,0
	c-1.4,0.1-2.5,1.2-2.7,2.6c0,0.3-0.1,0.7-0.1,1v6.3h-2V142z"/>
<path fill="#00254A" d="M96.4,150.4c-2.8,0-5-2.2-5-6c0-4,2.3-6.1,5.2-6.1s5,2.2,5,6C101.6,148.7,98.9,150.4,96.4,150.4L96.4,150.4z
	 M96.5,148.9c1.9,0,3-2.1,3-4.5c0-1.9-0.8-4.5-3-4.5s-3.1,2.4-3.1,4.5C93.5,146.8,94.6,148.9,96.5,148.9L96.5,148.9z"/>
<path fill="#00254A" d="M104.1,133.3h2v7l0,0c0.7-1.3,2-2,3.5-1.9c2.6,0,4.4,2.3,4.4,5.9c0,4.2-2.3,6.2-4.7,6.2
	c-1.4,0.1-2.8-0.7-3.4-2h-0.1l-0.1,1.8H104c0-0.8,0.1-2,0.1-2.9L104.1,133.3z M106.1,145.7c0,0.2,0,0.5,0.1,0.7
	c0.2,1.3,1.4,2.3,2.7,2.4c2,0,3.1-1.9,3.1-4.5c0-2.4-1-4.4-3-4.4c-1.4,0.1-2.5,1.1-2.7,2.4c-0.1,0.3-0.1,0.6-0.1,0.8L106.1,145.7z"
	/>
<path fill="#00254A" d="M117.4,136.7c-0.7,0-1.2-0.5-1.2-1.2c0,0,0,0,0-0.1c0-0.7,0.5-1.3,1.2-1.3c0,0,0.1,0,0.1,0
	c0.7,0,1.2,0.5,1.2,1.2c0,0,0,0.1,0,0.1c0,0.7-0.5,1.2-1.1,1.3C117.5,136.7,117.4,136.7,117.4,136.7L117.4,136.7z M116.4,150.2
	v-11.6h2v11.6L116.4,150.2z"/>
<path fill="#00254A" d="M125.9,150.4c-2.8,0-5-2.2-5-6c0-4,2.3-6.1,5.2-6.1s5,2.2,5,6C131.1,148.7,128.4,150.4,125.9,150.4
	L125.9,150.4z M126,148.9c1.9,0,3-2.1,3-4.5c0-1.9-0.8-4.5-3-4.5s-3.1,2.4-3.1,4.5C122.9,146.8,124.1,148.9,126,148.9L126,148.9z"/>
<path fill="#00254A" d="M136,135.8v2.8h2.8v1.5H136v6.4c0,1.5,0.4,2.2,1.5,2.2c0.4,0,0.7,0,1.1-0.1l0.1,1.5
	c-0.6,0.2-1.1,0.3-1.7,0.3c-0.8,0-1.6-0.3-2.1-0.8c-0.6-0.9-0.9-1.9-0.8-3v-6.4h-1.7v-1.5h1.6v-2.1L136,135.8z"/>
<path fill="#00254A" d="M141.8,136.7c-0.7,0-1.2-0.5-1.2-1.2c0,0,0,0,0-0.1c0-0.7,0.5-1.3,1.2-1.3c0,0,0.1,0,0.1,0
	c0.7,0,1.2,0.5,1.2,1.2c0,0,0,0.1,0,0.1c0,0.7-0.5,1.2-1.1,1.3C141.9,136.7,141.9,136.7,141.8,136.7L141.8,136.7z M140.8,150.2
	v-11.6h2v11.6L140.8,150.2z"/>
<path fill="#00254A" d="M153.5,149.8c-0.9,0.4-1.9,0.6-2.9,0.6c-3.2,0-5.3-2.3-5.3-5.9s2.2-6.1,5.7-6.1c0.9,0,1.7,0.2,2.5,0.6
	l-0.4,1.6c-0.7-0.3-1.4-0.5-2.2-0.5c-2.4,0-3.6,2.1-3.6,4.4c0,2.7,1.5,4.3,3.6,4.3c0.8,0,1.5-0.2,2.2-0.5L153.5,149.8z"/>
<path fill="#00254A" d="M160.2,147.8c1,0.6,2.1,0.9,3.3,0.9c2,0,3.2-1.1,3.2-2.8c0-1.5-0.9-2.4-2.8-3.2c-2.2-0.9-3.9-2.4-3.9-4.6
	c0-2.5,2-4.3,4.9-4.3c1.1,0,2.2,0.2,3.1,0.7l-0.5,1.7c-0.8-0.5-1.7-0.7-2.7-0.7c-2,0-2.8,1.3-2.8,2.4c0,1.5,0.9,2.2,3,3.2
	c2.5,1.2,3.7,2.5,3.7,4.8c0,2.6-1.8,4.6-5.3,4.6c-1.3,0-2.5-0.3-3.7-0.9L160.2,147.8z"/>
<path fill="#00254A" d="M180,147c0,1.2,0,2.2,0.1,3.2h-1.8l-0.1-1.7l0,0c-0.7,1.2-2,1.9-3.4,1.9c-1.9,0-3.6-1.2-3.6-4.9v-7h2v6.6
	c0,2.1,0.6,3.6,2.3,3.6c1.1,0,2.1-0.8,2.4-1.8c0.1-0.3,0.2-0.7,0.2-1.1v-7.2h2L180,147z"/>
<path fill="#00254A" d="M183.2,142.3c0-1.6,0-2.7-0.1-3.7h1.8l0.1,1.8l0,0c0.7-1.3,2.1-2.1,3.6-2.1c2.6,0,4.4,2.3,4.4,5.9
	c0,4.2-2.3,6.2-4.7,6.2c-1.3,0-2.5-0.6-3.1-1.7l0,0v6.1h-2L183.2,142.3z M185.2,145.6c0,0.3,0,0.6,0.1,0.9c0.2,1.3,1.4,2.3,2.7,2.3
	c2,0,3.1-1.9,3.1-4.5c0-2.4-1-4.3-3-4.3c-1.4,0.1-2.5,1.1-2.7,2.4c-0.1,0.3-0.1,0.6-0.1,0.9L185.2,145.6z"/>
<path fill="#00254A" d="M195.6,142.3c0-1.6,0-2.7-0.1-3.7h1.8l0.1,1.8l0,0c0.7-1.3,2.1-2.1,3.6-2.1c2.6,0,4.4,2.3,4.4,5.9
	c0,4.2-2.3,6.2-4.7,6.2c-1.3,0-2.5-0.6-3.1-1.7l0,0v6.1h-2L195.6,142.3z M197.6,145.6c0,0.3,0,0.6,0.1,0.9c0.2,1.3,1.4,2.3,2.7,2.3
	c2,0,3.1-1.9,3.1-4.5c0-2.4-1-4.3-3-4.3c-1.4,0.1-2.5,1.1-2.7,2.4c-0.1,0.3-0.1,0.6-0.1,0.9L197.6,145.6z"/>
<path fill="#00254A" d="M207.9,133.3h2v16.9h-2V133.3z"/>
<path fill="#00254A" d="M214.4,144.7c0,3.1,1.7,4.1,3.6,4.1c1,0,1.9-0.2,2.8-0.6l0.3,1.5c-1.1,0.5-2.3,0.7-3.4,0.7
	c-3.3,0-5.2-2.3-5.2-5.9s1.9-6.2,5-6.2c3.3,0,4.3,3.1,4.3,5.4c0,0.3,0,0.7-0.1,1H214.4z M219.8,143.3c0-1.6-0.6-3.4-2.6-3.4
	s-2.7,1.9-2.8,3.4H219.8z"/>
<path fill="#00254A" d="M224.2,141.7c0-1.2,0-2.1-0.1-3.1h1.8l0.1,1.8l0,0c0.6-1.3,1.9-2,3.3-2c1.4,0,2.6,0.9,3,2.2l0,0
	c0.3-0.6,0.7-1.1,1.2-1.5c0.6-0.5,1.4-0.7,2.2-0.7c1.6,0,3.5,1.1,3.5,4.8v7.1h-2v-6.8c0-2-0.6-3.4-2.2-3.4c-1.1,0.1-2,0.8-2.2,1.9
	c-0.1,0.3-0.1,0.7-0.1,1.1v7.3h-2v-7.1c0-1.7-0.6-3-2.1-3c-1.1,0.1-2.1,0.9-2.3,2c-0.1,0.3-0.1,0.7-0.1,1v7.1h-2L224.2,141.7z"/>
<path fill="#00254A" d="M243.7,144.7c0,3.1,1.7,4.1,3.6,4.1c1,0,1.9-0.2,2.8-0.6l0.3,1.5c-1.1,0.5-2.3,0.7-3.4,0.7
	c-3.3,0-5.2-2.3-5.2-5.9s1.9-6.2,5-6.2c3.3,0,4.3,3.1,4.3,5.4c0,0.3,0,0.7-0.1,1H243.7z M249.1,143.3c0-1.6-0.6-3.4-2.6-3.4
	s-2.7,1.9-2.8,3.4H249.1z"/>
<path fill="#00254A" d="M253.5,141.7c0-1.2,0-2.1-0.1-3.1h1.8l0.1,1.8l0,0c0.7-1.3,2-2,3.5-2c1.6,0,3.7,1,3.7,4.6v7.2h-2v-6.9
	c0-1.7-0.6-3.2-2.3-3.2c-1.2,0.1-2.2,0.9-2.5,2.1c-0.1,0.3-0.1,0.7-0.1,1v7.1h-2L253.5,141.7z"/>
<path fill="#00254A" d="M268,135.8v2.8h2.8v1.5H268v6.4c0,1.5,0.5,2.2,1.5,2.2c0.4,0,0.7,0,1.1-0.1l0.1,1.5
	c-0.6,0.2-1.1,0.3-1.7,0.3c-0.8,0-1.6-0.3-2.1-0.8c-0.6-0.9-0.9-1.9-0.8-3v-6.4h-1.7v-1.5h1.6v-2.1L268,135.8z"/>
</svg>
