<?xml version="1.0" encoding="utf-8"?>
<!-- Generator: Adobe Illustrator 20.1.0, SVG Export Plug-In . SVG Version: 6.00 Build 0)  -->
<svg version="1.1" id="Layer_1" xmlns="http://www.w3.org/2000/svg" xmlns:xlink="http://www.w3.org/1999/xlink" x="0px" y="0px"
	 width="100%" height="100%" viewBox="0 0 164.9 61.1" enable-background="new 0 0 164.9 61.1" xml:space="preserve">
<title>USA_Florastor_logo</title>
<linearGradient id="SVGID_1_" gradientUnits="userSpaceOnUse" x1="2277.595" y1="204.57" x2="2277.595" y2="232.11" gradientTransform="matrix(-1 0 0 1 2285.8501 -192.45)">
	<stop  offset="0" style="stop-color:#0080C0"/>
	<stop  offset="0.39" style="stop-color:#00588C"/>
	<stop  offset="0.8" style="stop-color:#00335C"/>
	<stop  offset="1" style="stop-color:#00254A"/>
</linearGradient>
<path fill="url(#SVGID_1_)" d="M0,1.1h16.5v7.1H7.4v10.7h8.6v6.8H7.4v17.2H0V1.1z"/>
<linearGradient id="SVGID_2_" gradientUnits="userSpaceOnUse" x1="2262.3201" y1="204.57" x2="2262.3201" y2="232.11" gradientTransform="matrix(-1 0 0 1 2285.8501 -192.45)">
	<stop  offset="0" style="stop-color:#0080C0"/>
	<stop  offset="0.39" style="stop-color:#00588C"/>
	<stop  offset="0.8" style="stop-color:#00335C"/>
	<stop  offset="1" style="stop-color:#00254A"/>
</linearGradient>
<path fill="url(#SVGID_2_)" d="M19.8,0h7.4v42.9h-7.4V0z"/>
<linearGradient id="SVGID_3_" gradientUnits="userSpaceOnUse" x1="2245.1599" y1="204.55" x2="2245.1599" y2="232.09" gradientTransform="matrix(-1 0 0 1 2285.8501 -192.45)">
	<stop  offset="0" style="stop-color:#0080C0"/>
	<stop  offset="0.39" style="stop-color:#00588C"/>
	<stop  offset="0.8" style="stop-color:#00335C"/>
	<stop  offset="1" style="stop-color:#00254A"/>
</linearGradient>
<path fill="url(#SVGID_3_)" d="M51.2,27.7c0,12.7-6.4,15.8-10.5,15.8c-6.6,0-10.5-5.7-10.5-15.6c0-11,5.2-15.8,10.7-15.8
	C47.3,12.1,51.2,18.1,51.2,27.7z M37.5,27.7c0,5.2,0.7,9.6,3.4,9.6c2.4,0,3-5.1,3-9.6c0-4.2-0.6-9.4-3.1-9.4
	C38,18.2,37.5,23.5,37.5,27.7z"/>
<linearGradient id="SVGID_4_" gradientUnits="userSpaceOnUse" x1="2225.1299" y1="204.5382" x2="2225.1299" y2="232.0782" gradientTransform="matrix(-1 0 0 1 2285.8501 -192.45)">
	<stop  offset="0" style="stop-color:#0080C0"/>
	<stop  offset="0.39" style="stop-color:#00588C"/>
	<stop  offset="0.8" style="stop-color:#00335C"/>
	<stop  offset="1" style="stop-color:#00254A"/>
</linearGradient>
<path fill="url(#SVGID_4_)" d="M53.9,21.7c0-3-0.1-6.3-0.2-9.1h6.4l0.4,4.4h0.2c1.2-3.2,3.4-4.9,5.5-4.9c0.5,0,1.1,0,1.6,0.1v8.1
	c-0.5-0.1-1.1-0.1-1.6-0.1c-1.6,0-3.7,1.2-4.5,4.3c-0.2,1-0.3,2-0.3,3v15.4h-7.4L53.9,21.7z"/>
<linearGradient id="SVGID_5_" gradientUnits="userSpaceOnUse" x1="2207.9651" y1="204.5396" x2="2207.9651" y2="232.0796" gradientTransform="matrix(-1 0 0 1 2285.8501 -192.45)">
	<stop  offset="0" style="stop-color:#0080C0"/>
	<stop  offset="0.39" style="stop-color:#00588C"/>
	<stop  offset="0.8" style="stop-color:#00335C"/>
	<stop  offset="1" style="stop-color:#00254A"/>
</linearGradient>
<path fill="url(#SVGID_5_)" d="M81.5,42.9l-0.4-3H81c-1.3,2.2-3.6,3.5-6.1,3.5c-4.2,0-7.3-3.8-7.3-9.2c0-7.9,6.4-11.2,12.6-11.3
	v-0.6c0-2.4-1.3-4.1-3.9-4.1c-2,0-4,0.6-5.6,1.7l-1.4-5.5c2.6-1.5,5.6-2.3,8.6-2.3c8.4,0,9.8,6.4,9.8,12.6V36c0,2.3,0.1,4.6,0.4,6.9
	L81.5,42.9z M80.5,28.1c-2.5,0.1-5.9,0.9-5.9,5.2c0,3,1.5,4.2,2.6,4.2c1.5-0.1,2.7-1.2,3-2.6c0.1-0.5,0.2-0.9,0.2-1.4L80.5,28.1z"/>
<linearGradient id="SVGID_6_" gradientUnits="userSpaceOnUse" x1="2187.8301" y1="204.5399" x2="2187.8301" y2="232.08" gradientTransform="matrix(-1 0 0 1 2285.8501 -192.45)">
	<stop  offset="0" style="stop-color:#0080C0"/>
	<stop  offset="0.39" style="stop-color:#00588C"/>
	<stop  offset="0.8" style="stop-color:#00335C"/>
	<stop  offset="1" style="stop-color:#00254A"/>
</linearGradient>
<path fill="url(#SVGID_6_)" d="M91.3,35.6c1.5,1,3.2,1.5,5,1.6c1.9,0,3-0.9,3-2.7c0-1.6-0.8-2.5-3.2-4.1c-4.5-2.8-5.6-6-5.6-8.8
	c0-5.5,3.6-9.6,9.1-9.6c1.9,0,3.9,0.5,5.6,1.4l-1.3,6c-1.1-0.8-2.5-1.2-3.8-1.2c-1.4-0.1-2.6,0.9-2.8,2.3c0,0.1,0,0.2,0,0.3
	c0,1.4,0.6,2.1,3.2,3.8c4.1,2.5,5.6,5.7,5.6,9.2c0,6.2-4.1,9.6-9.8,9.6c-2.3,0-5-0.7-6.3-1.7L91.3,35.6z"/>
<linearGradient id="SVGID_7_" gradientUnits="userSpaceOnUse" x1="2171.4351" y1="204.57" x2="2171.4351" y2="232.11" gradientTransform="matrix(-1 0 0 1 2285.8501 -192.45)">
	<stop  offset="0" style="stop-color:#0080C0"/>
	<stop  offset="0.39" style="stop-color:#00588C"/>
	<stop  offset="0.8" style="stop-color:#00335C"/>
	<stop  offset="1" style="stop-color:#00254A"/>
</linearGradient>
<path fill="url(#SVGID_7_)" d="M117,4.4v8.2h5.4v5.8H117v13.8c0,3.5,1.4,4.4,2.8,4.4c0.6,0,1.3-0.1,1.9-0.2l0.1,6.3
	c-1.5,0.4-3,0.6-4.5,0.6c-2,0.1-3.9-0.6-5.3-1.9c-1.5-1.6-2.4-3.9-2.4-8.7V18.4h-3.3v-5.8h3.3V6.3L117,4.4z"/>
<linearGradient id="SVGID_8_" gradientUnits="userSpaceOnUse" x1="2152.1199" y1="204.55" x2="2152.1199" y2="232.09" gradientTransform="matrix(-1 0 0 1 2285.8501 -192.45)">
	<stop  offset="0" style="stop-color:#0080C0"/>
	<stop  offset="0.39" style="stop-color:#00588C"/>
	<stop  offset="0.8" style="stop-color:#00335C"/>
	<stop  offset="1" style="stop-color:#00254A"/>
</linearGradient>
<path fill="url(#SVGID_8_)" d="M144.3,27.7c0,12.7-6.4,15.8-10.5,15.8c-6.6,0-10.5-5.7-10.5-15.6c0-10.9,5.2-15.8,10.6-15.8
	C140.4,12.1,144.3,18.1,144.3,27.7z M130.5,27.7c0,5.2,0.7,9.6,3.4,9.6c2.4,0,3-5.1,3-9.6c0-4.2-0.6-9.4-3.1-9.4
	C131.1,18.2,130.5,23.5,130.5,27.7z"/>
<linearGradient id="SVGID_9_" gradientUnits="userSpaceOnUse" x1="2132.095" y1="204.5382" x2="2132.095" y2="232.0782" gradientTransform="matrix(-1 0 0 1 2285.8501 -192.45)">
	<stop  offset="0" style="stop-color:#0080C0"/>
	<stop  offset="0.39" style="stop-color:#00588C"/>
	<stop  offset="0.8" style="stop-color:#00335C"/>
	<stop  offset="1" style="stop-color:#00254A"/>
</linearGradient>
<path fill="url(#SVGID_9_)" d="M147,21.7c0-3-0.1-6.3-0.2-9.1h6.4l0.4,4.4h0.2c1.2-3.2,3.4-4.9,5.5-4.9c0.5,0,1.1,0,1.6,0.1v8.1
	c-0.5-0.1-1.1-0.1-1.6-0.1c-1.6,0-3.7,1.2-4.5,4.3c-0.2,1-0.3,2-0.3,3v15.4H147V21.7z"/>
<linearGradient id="SVGID_10_" gradientUnits="userSpaceOnUse" x1="220.9298" y1="-10.8799" x2="220.9298" y2="-14.2399" gradientTransform="matrix(1 0 0 -1 -57.63 -2.09)">
	<stop  offset="0" style="stop-color:#0080C0"/>
	<stop  offset="0.39" style="stop-color:#00588C"/>
	<stop  offset="0.8" style="stop-color:#00335C"/>
	<stop  offset="1" style="stop-color:#00254A"/>
</linearGradient>
<path fill="url(#SVGID_10_)" d="M163.3,8.8c0.9,0,1.7,0.7,1.7,1.7c0,0.9-0.7,1.7-1.7,1.7c-0.9,0-1.7-0.7-1.7-1.7c0,0,0,0,0,0
	C161.6,9.6,162.3,8.8,163.3,8.8C163.2,8.8,163.3,8.8,163.3,8.8z M163.3,9.1c-0.7,0.1-1.3,0.7-1.2,1.5c0.1,0.6,0.6,1.2,1.2,1.2
	c0.7,0,1.2-0.6,1.2-1.3c0,0,0,0,0-0.1C164.5,9.8,164,9.2,163.3,9.1C163.3,9.1,163.3,9.1,163.3,9.1L163.3,9.1z M163,11.3h-0.4V9.7
	c0.2,0,0.4-0.1,0.6-0.1c0.2,0,0.4,0,0.6,0.1c0.1,0.1,0.2,0.2,0.2,0.4c0,0.2-0.1,0.4-0.3,0.4l0,0c0.2,0.1,0.2,0.2,0.3,0.4
	c0,0.1,0.1,0.3,0.1,0.4h-0.4c-0.1-0.1-0.1-0.3-0.1-0.4c0-0.2-0.1-0.3-0.3-0.3c0,0,0,0,0,0H163L163,11.3z M163,10.4h0.2
	c0.2,0,0.4-0.1,0.4-0.2s-0.1-0.3-0.3-0.3H163L163,10.4z"/>
<path fill="#00254A" d="M0,47.4c0.8-0.2,1.6-0.2,2.5-0.2c1.3-0.1,2.7,0.3,3.7,1.2c1,1,1.6,2.5,1.5,3.9c0.1,1.5-0.4,3-1.4,4.2
	c-1.1,1-2.6,1.5-4.1,1.4c-0.7,0-1.4,0-2.1-0.1L0,47.4z M1.3,56.7c0.4,0,0.7,0,1.1,0c2.4,0,3.9-1.4,3.9-4.5c0-2.5-1.2-4.1-3.7-4.1
	c-0.4,0-0.9,0-1.3,0.1V56.7z"/>
<path fill="#00254A" d="M14.1,55.9c0,0.6,0,1.2,0.1,1.8H13l-0.1-0.9l0,0c-0.5,0.7-1.3,1.1-2.1,1.1c-1.1,0-2.1-0.9-2.1-2
	c0-0.1,0-0.1,0-0.2c0-1.8,1.6-2.8,4.1-2.8v-0.2c0-0.7-0.2-1.8-1.6-1.7c-0.6,0-1.2,0.2-1.7,0.5l-0.3-0.9c0.7-0.4,1.5-0.6,2.2-0.6
	c2,0,2.6,1.4,2.6,3L14.1,55.9z M12.8,53.9c-1.2,0-2.8,0.2-2.8,1.7c-0.1,0.6,0.4,1.2,1,1.3c0.1,0,0.1,0,0.2,0c0.8,0,1.4-0.5,1.6-1.2
	c0-0.1,0.1-0.3,0.1-0.4V53.9z"/>
<path fill="#00254A" d="M16.8,48.9c-0.4,0-0.8-0.3-0.8-0.8c0,0,0,0,0-0.1c0-0.4,0.3-0.8,0.8-0.8c0,0,0,0,0.1,0
	c0.4,0,0.8,0.3,0.8,0.8c0,0,0,0,0,0.1c0,0.4-0.3,0.8-0.7,0.8C16.9,48.9,16.8,48.9,16.8,48.9L16.8,48.9z M16.2,57.7v-7.6h1.3v7.6
	H16.2z"/>
<path fill="#00254A" d="M19.6,46.7h1.3v11h-1.3V46.7z"/>
<path fill="#00254A" d="M23.5,50.2l1.5,4.4c0.2,0.5,0.3,1.1,0.4,1.5l0,0c0.1-0.4,0.3-1,0.4-1.6l1.3-4.4h1.4l-1.8,5.2
	c-0.8,2.4-1.5,3.9-2.4,4.8c-0.4,0.5-1,0.8-1.6,1l-0.4-1.1c0.4-0.2,0.8-0.4,1.2-0.8c0.4-0.4,0.8-0.9,1-1.5c0.1-0.1,0.1-0.2,0.1-0.3
	c0-0.1,0-0.2-0.1-0.3l-2.5-7L23.5,50.2z"/>
<path fill="#00254A" d="M32.8,47.4c0.8-0.1,1.6-0.2,2.3-0.2c1-0.1,2,0.2,2.7,0.8c0.6,0.6,0.9,1.4,0.9,2.2c0,0.8-0.2,1.6-0.8,2.2
	c-0.8,0.8-1.9,1.2-3,1.2c-0.3,0-0.6,0-0.9-0.1v4.2h-1.3L32.8,47.4z M34.1,52.4c0.3,0.1,0.6,0.1,0.9,0.1c1.2,0.2,2.2-0.7,2.4-1.8
	c0-0.1,0-0.3,0-0.4c0-1.1-0.8-2-1.9-2.1c-0.1,0-0.2,0-0.3,0c-0.4,0-0.7,0-1.1,0.1V52.4z"/>
<path fill="#00254A" d="M40.2,52.4c0-0.8,0-1.6-0.1-2.2h1.2l0.1,1.4l0,0c0.2-1,1.2-1.7,2.3-1.5v1.3c-0.1,0-0.3,0-0.4,0
	c-0.9,0.1-1.7,0.8-1.7,1.7c0,0.2,0,0.4,0,0.7v4.1h-1.3V52.4z"/>
<path fill="#00254A" d="M47.5,57.9c-1.8,0-3.3-1.4-3.3-3.9s1.5-4,3.4-4s3.3,1.5,3.3,3.9C50.8,56.8,49.1,57.9,47.5,57.9L47.5,57.9z
	 M47.5,56.9c1.2,0,2-1.4,2-2.9c0-1.2-0.5-2.9-2-2.9s-2,1.6-2,2.9C45.5,55.5,46.3,56.9,47.5,56.9z"/>
<path fill="#00254A" d="M52.4,46.7h1.3v4.6l0,0c0.4-0.8,1.3-1.3,2.3-1.3c1.7,0,2.8,1.5,2.8,3.8c0,2.7-1.5,4-3,4
	c-0.9,0-1.8-0.5-2.2-1.3l0,0l-0.1,1.2h-1.2c0-0.5,0.1-1.3,0.1-1.9L52.4,46.7z M53.7,54.8c0,0.2,0,0.3,0,0.5c0.2,0.9,0.9,1.5,1.8,1.5
	c1.3,0,2-1.2,2-2.9c0-1.5-0.7-2.8-2-2.8c-0.9,0.1-1.6,0.7-1.8,1.6c0,0.2-0.1,0.4-0.1,0.6L53.7,54.8z"/>
<path fill="#00254A" d="M61.1,48.9c-0.4,0-0.8-0.3-0.8-0.8c0,0,0,0,0-0.1c0-0.4,0.3-0.8,0.8-0.8c0,0,0,0,0.1,0
	c0.4,0,0.8,0.3,0.8,0.8c0,0,0,0,0,0.1c0,0.4-0.3,0.8-0.7,0.8C61.2,48.9,61.2,48.9,61.1,48.9L61.1,48.9z M60.5,57.7v-7.6h1.3v7.6
	H60.5z"/>
<path fill="#00254A" d="M66.6,57.9c-1.8,0-3.3-1.4-3.3-3.9s1.5-4,3.4-4c1.8,0,3.3,1.5,3.3,3.9C70,56.8,68.2,57.9,66.6,57.9
	L66.6,57.9z M66.7,56.9c1.2,0,2-1.4,2-2.9c0-1.2-0.5-2.9-2-2.9c-1.5,0-2,1.6-2,2.9C64.7,55.5,65.4,56.9,66.7,56.9z"/>
<path fill="#00254A" d="M73.2,48.4v1.8H75v1h-1.8v4.2c0,1,0.3,1.4,1,1.4c0.2,0,0.5,0,0.7-0.1v1c-0.4,0.1-0.7,0.2-1.1,0.2
	c-0.5,0-1-0.2-1.4-0.6c-0.4-0.6-0.6-1.3-0.5-1.9v-4.2h-1.1v-1h1.1v-1.4L73.2,48.4z"/>
<path fill="#00254A" d="M77,48.9c-0.4,0-0.8-0.3-0.8-0.8c0,0,0,0,0-0.1c0-0.4,0.3-0.8,0.8-0.8c0,0,0,0,0.1,0c0.4,0,0.8,0.3,0.8,0.8
	c0,0,0,0,0,0.1c0,0.4-0.3,0.8-0.7,0.8C77.1,48.9,77.1,48.9,77,48.9L77,48.9z M76.4,57.7v-7.6h1.3v7.6H76.4z"/>
<path fill="#00254A" d="M84.6,57.5c-0.6,0.3-1.2,0.4-1.9,0.4c-2.1,0-3.4-1.5-3.4-3.8c-0.2-2,1.3-3.8,3.4-4c0.1,0,0.2,0,0.4,0
	c0.6,0,1.1,0.1,1.6,0.4l-0.3,1c-0.4-0.2-0.9-0.3-1.4-0.3c-1.6,0-2.4,1.3-2.4,2.9c0,1.8,1,2.8,2.4,2.8c0.5,0,1-0.1,1.4-0.3L84.6,57.5
	z"/>
<path fill="#00254A" d="M88.9,56.2c0.6,0.4,1.4,0.6,2.1,0.6c1.3,0,2.1-0.7,2.1-1.8s-0.6-1.5-1.8-2.1c-1.5-0.6-2.5-1.5-2.5-3
	c0-1.6,1.3-2.9,2.9-2.8c0.1,0,0.2,0,0.2,0c0.7,0,1.4,0.1,2,0.5l-0.3,1.1c-0.5-0.3-1.1-0.5-1.8-0.4c-1.3,0-1.8,0.8-1.8,1.5
	c0,1,0.6,1.5,1.9,2.1c1.6,0.8,2.4,1.7,2.4,3.1c0,1.7-1.2,3-3.4,3c-0.8,0-1.7-0.2-2.4-0.6L88.9,56.2z"/>
<path fill="#00254A" d="M101.8,55.7c0,0.8,0,1.5,0.1,2.1h-1.1l-0.1-1.1l0,0c-0.5,0.8-1.4,1.3-2.3,1.3c-1.2,0-2.4-0.8-2.4-3.2v-4.5
	h1.4v4.3c0,1.4,0.4,2.3,1.5,2.3c0.7,0,1.3-0.5,1.5-1.2c0.1-0.2,0.1-0.5,0.1-0.7v-4.7h1.3L101.8,55.7z"/>
<path fill="#00254A" d="M103.9,52.6c0-1,0-1.8-0.1-2.4h1.2l0.1,1.2l0,0c0.5-0.8,1.4-1.4,2.3-1.3c1.7,0,2.9,1.5,2.9,3.8
	c0,2.7-1.5,4-3.1,4c-0.8,0-1.6-0.4-2-1.1l0,0v4h-1.3L103.9,52.6z M105.2,54.8c0,0.2,0,0.4,0.1,0.6c0.1,0.9,0.9,1.5,1.8,1.5
	c1.3,0,2-1.2,2-2.9s-0.7-2.8-2-2.8c-0.9,0.1-1.6,0.7-1.8,1.6c-0.1,0.2-0.1,0.4-0.1,0.6L105.2,54.8z"/>
<path fill="#00254A" d="M111.9,52.6c0-1,0-1.8-0.1-2.4h1.2l0.1,1.2l0,0c0.5-0.8,1.4-1.4,2.3-1.3c1.7,0,2.9,1.5,2.9,3.8
	c0,2.7-1.5,4-3.1,4c-0.8,0-1.6-0.4-2-1.1l0,0v4H112L111.9,52.6z M113.2,54.8c0,0.2,0,0.4,0.1,0.6c0.1,0.9,0.9,1.5,1.8,1.5
	c1.3,0,2-1.2,2-2.9s-0.7-2.8-2-2.8c-0.9,0.1-1.6,0.7-1.8,1.6c-0.1,0.2-0.1,0.4-0.1,0.6L113.2,54.8z"/>
<path fill="#00254A" d="M120,46.7h1.3v11H120V46.7z"/>
<path fill="#00254A" d="M124.2,54.2c0,2,1.1,2.7,2.3,2.7c0.6,0,1.3-0.1,1.8-0.4l0.2,1c-0.7,0.3-1.5,0.4-2.2,0.4
	c-2.2,0-3.4-1.5-3.4-3.8s1.2-4,3.2-4c2.2,0,2.8,2,2.8,3.5c0,0.2,0,0.4,0,0.7L124.2,54.2z M127.7,53.2c0-1.1-0.4-2.2-1.7-2.2
	s-1.7,1.2-1.8,2.2H127.7z"/>
<path fill="#00254A" d="M130.5,52.2c0-0.8,0-1.4-0.1-2h1.1l0.1,1.1l0,0c0.4-0.8,1.3-1.3,2.2-1.3c0.9,0,1.7,0.5,2,1.4l0,0
	c0.2-0.4,0.5-0.7,0.8-1c0.4-0.3,0.9-0.5,1.5-0.4c1,0,2.3,0.7,2.3,3.1v4.6h-1.3v-4.4c0-1.3-0.4-2.2-1.5-2.2c-0.7,0-1.3,0.5-1.5,1.2
	c-0.1,0.2-0.1,0.5-0.1,0.7v4.7h-1.3v-4.7c0-1.1-0.4-2-1.4-2c-0.7,0-1.4,0.6-1.5,1.3c-0.1,0.2-0.1,0.4-0.1,0.7v4.6h-1.3L130.5,52.2z"
	/>
<path fill="#00254A" d="M143.3,54.2c0,2,1.1,2.7,2.3,2.7c0.6,0,1.3-0.1,1.8-0.4l0.2,1c-0.7,0.3-1.5,0.5-2.3,0.4
	c-2.2,0-3.4-1.5-3.4-3.8s1.3-4,3.2-4c2.2,0,2.8,2,2.8,3.5c0,0.2,0,0.4,0,0.7L143.3,54.2z M146.8,53.2c0-1.1-0.4-2.2-1.7-2.2
	s-1.7,1.2-1.8,2.2H146.8z"/>
<path fill="#00254A" d="M149.6,52.2c0-0.8,0-1.4-0.1-2h1.1l0.1,1.1l0,0c0.5-0.8,1.3-1.3,2.2-1.3c1,0,2.4,0.7,2.4,3v4.7h-1.3v-4.5
	c0-1.1-0.4-2.1-1.5-2.1c-0.8,0-1.5,0.6-1.6,1.4c-0.1,0.2-0.1,0.4-0.1,0.6v4.6h-1.3L149.6,52.2z"/>
<path fill="#00254A" d="M159,48.4v1.8h1.8v1H159v4.2c0,1,0.3,1.4,1,1.4c0.2,0,0.5,0,0.7-0.1v1c-0.4,0.1-0.7,0.2-1.1,0.2
	c-0.5,0-1-0.2-1.4-0.6c-0.4-0.6-0.6-1.3-0.5-1.9v-4.2h-1.1v-1h1.1v-1.4L159,48.4z"/>
</svg>
