<svg id="Layer_1" data-name="Layer 1" xmlns="http://www.w3.org/2000/svg" xmlns:xlink="http://www.w3.org/1999/xlink" viewBox="0 0 164.91 61.14"><defs><style>.cls-1{fill:url(#linear-gradient);}.cls-2{fill:url(#linear-gradient-2);}.cls-3{fill:url(#linear-gradient-3);}.cls-4{fill:url(#linear-gradient-4);}.cls-5{fill:url(#linear-gradient-5);}.cls-6{fill:url(#linear-gradient-6);}.cls-7{fill:url(#linear-gradient-7);}.cls-8{fill:url(#linear-gradient-8);}.cls-9{fill:url(#linear-gradient-9);}.cls-10{fill:url(#linear-gradient-10);}.cls-11{fill:#00254a;}</style><linearGradient id="linear-gradient" x1="2185.59" y1="-133.57" x2="2185.59" y2="-161.11" gradientTransform="translate(2251.48 -56.36) rotate(180)" gradientUnits="userSpaceOnUse"><stop offset="0" stop-color="#0080c0"/><stop offset="0.39" stop-color="#00588c"/><stop offset="0.8" stop-color="#00335c"/><stop offset="1" stop-color="#00254a"/></linearGradient><linearGradient id="linear-gradient-2" x1="2170.32" y1="-133.57" x2="2170.32" y2="-161.11" xlink:href="#linear-gradient"/><linearGradient id="linear-gradient-3" x1="2153.16" y1="-133.54" x2="2153.16" y2="-161.08" xlink:href="#linear-gradient"/><linearGradient id="linear-gradient-4" x1="2133.13" y1="-133.54" x2="2133.13" y2="-161.08" xlink:href="#linear-gradient"/><linearGradient id="linear-gradient-5" x1="2115.97" y1="-133.54" x2="2115.97" y2="-161.08" xlink:href="#linear-gradient"/><linearGradient id="linear-gradient-6" x1="2095.88" y1="-133.54" x2="2095.88" y2="-161.08" xlink:href="#linear-gradient"/><linearGradient id="linear-gradient-7" x1="2079.42" y1="-133.57" x2="2079.42" y2="-161.11" xlink:href="#linear-gradient"/><linearGradient id="linear-gradient-8" x1="2060.12" y1="-133.54" x2="2060.12" y2="-161.08" xlink:href="#linear-gradient"/><linearGradient id="linear-gradient-9" x1="2040.09" y1="-133.54" x2="2040.09" y2="-161.08" xlink:href="#linear-gradient"/><linearGradient id="linear-gradient-10" x1="220.89" y1="73.88" x2="220.89" y2="77.24" gradientTransform="matrix(1, 0, 0, 1, 0, 0)" xlink:href="#linear-gradient"/></defs><title>USA_Florastor_logo</title><path class="cls-1" d="M57.63,66.2H74.14v7.07H65V84h8.57v6.76H65V108H57.63Z" transform="translate(-57.63 -65.09)"/><path class="cls-2" d="M77.47,65.09h7.38V108H77.47Z" transform="translate(-57.63 -65.09)"/><path class="cls-3" d="M108.86,92.76c0,12.66-6.37,15.76-10.54,15.76-6.59,0-10.54-5.71-10.54-15.57C87.78,82,93,77.19,98.43,77.19,104.91,77.19,108.86,83.2,108.86,92.76Zm-13.75,0c0,5.21.73,9.55,3.38,9.55,2.37,0,3-5.09,3-9.55,0-4.16-.62-9.43-3.1-9.43C95.67,83.33,95.11,88.6,95.11,92.76Z" transform="translate(-57.63 -65.09)"/><path class="cls-4" d="M111.56,86.8c0-3-.11-6.33-.23-9.12h6.42l.4,4.41h.17c1.24-3.23,3.44-4.9,5.47-4.9a5.66,5.66,0,0,1,1.58.12v8.07a6.09,6.09,0,0,0-1.58-.12c-1.58,0-3.66,1.18-4.51,4.34a13.54,13.54,0,0,0-.28,3V108h-7.44Z" transform="translate(-57.63 -65.09)"/><path class="cls-5" d="M139.12,108l-.39-3h-.11a7,7,0,0,1-6.09,3.47c-4.17,0-7.27-3.85-7.27-9.25,0-7.94,6.37-11.23,12.62-11.29V87.3c0-2.36-1.3-4.1-3.89-4.1a9.63,9.63,0,0,0-5.64,1.74L127,79.48a16.67,16.67,0,0,1,8.57-2.3c8.4,0,9.75,6.45,9.75,12.6v11.29a44.8,44.8,0,0,0,.45,6.95Zm-1-14.77c-2.48.06-5.86.93-5.86,5.15,0,3,1.52,4.16,2.65,4.16a3.27,3.27,0,0,0,3-2.61,5.78,5.78,0,0,0,.17-1.43Z" transform="translate(-57.63 -65.09)"/><path class="cls-6" d="M148.92,100.7a9.65,9.65,0,0,0,5,1.61c1.92,0,3-.93,3-2.73,0-1.55-.79-2.54-3.21-4.09-4.51-2.79-5.58-6-5.58-8.75,0-5.46,3.55-9.56,9.07-9.56a12,12,0,0,1,5.58,1.36l-1.3,6a7.15,7.15,0,0,0-3.83-1.24,2.53,2.53,0,0,0-2.76,2.61c0,1.36.62,2.11,3.21,3.78,4.06,2.54,5.58,5.71,5.58,9.18,0,6.2-4.06,9.56-9.75,9.56-2.31,0-5-.68-6.31-1.74Z" transform="translate(-57.63 -65.09)"/><path class="cls-7" d="M174.68,69.49v8.19h5.41v5.77h-5.41V97.29c0,3.54,1.35,4.4,2.82,4.4a9.24,9.24,0,0,0,1.92-.19l.06,6.33a15.87,15.87,0,0,1-4.51.56,7,7,0,0,1-5.3-1.92c-1.52-1.61-2.37-3.91-2.37-8.69V83.45H164V77.68h3.27V71.42Z" transform="translate(-57.63 -65.09)"/><path class="cls-8" d="M201.9,92.76c0,12.66-6.37,15.76-10.54,15.76-6.59,0-10.54-5.71-10.54-15.57,0-10.92,5.18-15.76,10.65-15.76C198,77.19,201.9,83.2,201.9,92.76Zm-13.75,0c0,5.21.73,9.55,3.38,9.55,2.37,0,3-5.09,3-9.55,0-4.16-.62-9.43-3.1-9.43C188.71,83.33,188.15,88.6,188.15,92.76Z" transform="translate(-57.63 -65.09)"/><path class="cls-9" d="M204.6,86.8c0-3-.11-6.33-.23-9.12h6.42l.39,4.41h.17c1.24-3.23,3.44-4.9,5.47-4.9a5.66,5.66,0,0,1,1.58.12v8.07a6.08,6.08,0,0,0-1.58-.12c-1.58,0-3.66,1.18-4.51,4.34a13.54,13.54,0,0,0-.28,3V108H204.6Z" transform="translate(-57.63 -65.09)"/><path class="cls-10" d="M220.91,73.88a1.68,1.68,0,1,1-1.66,1.67,1.64,1.64,0,0,1,1.66-1.67Zm0,.34a1.34,1.34,0,0,0,0,2.67,1.25,1.25,0,0,0,1.22-1.34,1.27,1.27,0,0,0-1.23-1.34Zm-.24,2.2h-.37V74.76a3,3,0,0,1,.62-.06.88.88,0,0,1,.56.13.46.46,0,0,1,.16.36.42.42,0,0,1-.33.4v0c.16.05.24.18.29.41a1.13,1.13,0,0,0,.12.41h-.4a1.37,1.37,0,0,1-.13-.4.29.29,0,0,0-.33-.27h-.18Zm0-.94h.18c.21,0,.37-.07.37-.24s-.11-.26-.34-.26l-.21,0Z" transform="translate(-57.63 -65.09)"/><path class="cls-11" d="M57.63,112.45a13.09,13.09,0,0,1,2.48-.22,5.25,5.25,0,0,1,3.71,1.15,5,5,0,0,1,1.46,3.91,5.75,5.75,0,0,1-1.43,4.2,5.61,5.61,0,0,1-4.11,1.4,19.84,19.84,0,0,1-2.11-.11Zm1.3,9.33a7.72,7.72,0,0,0,1.09,0c2.42,0,3.89-1.42,3.89-4.48,0-2.54-1.21-4.07-3.71-4.07a6.38,6.38,0,0,0-1.27.11Z" transform="translate(-57.63 -65.09)"/><path class="cls-11" d="M71.73,121a10.59,10.59,0,0,0,.11,1.78H70.67l-.11-.9h0A2.44,2.44,0,0,1,68.45,123a2.06,2.06,0,0,1-2.12-2.17c0-1.84,1.57-2.79,4.11-2.78v-.19c0-.73-.2-1.75-1.55-1.73a3.08,3.08,0,0,0-1.74.51l-.29-.91a4.32,4.32,0,0,1,2.25-.61c2,0,2.64,1.4,2.64,3ZM70.46,119c-1.22,0-2.84.2-2.84,1.72A1.15,1.15,0,0,0,68.79,122a1.62,1.62,0,0,0,1.61-1.22,1.42,1.42,0,0,0,.06-.44Z" transform="translate(-57.63 -65.09)"/><path class="cls-11" d="M74.42,114a.78.78,0,0,1-.79-.83.8.8,0,0,1,.81-.84.79.79,0,0,1,.81.84.78.78,0,0,1-.81.83Zm-.62,8.79v-7.55h1.3v7.55Z" transform="translate(-57.63 -65.09)"/><path class="cls-11" d="M77.19,111.83h1.3v11h-1.3Z" transform="translate(-57.63 -65.09)"/><path class="cls-11" d="M81.14,115.28l1.46,4.43c.16.51.31,1.08.42,1.54h0c.11-.45.26-1,.42-1.57l1.32-4.4h1.36l-1.8,5.21c-.82,2.39-1.46,3.87-2.36,4.77a3.72,3.72,0,0,1-1.58,1l-.37-1.11a4,4,0,0,0,1.16-.75,4.9,4.9,0,0,0,1-1.47,1,1,0,0,0,.11-.34,1.21,1.21,0,0,0-.08-.33l-2.51-7Z" transform="translate(-57.63 -65.09)"/><path class="cls-11" d="M90.44,112.44a12.89,12.89,0,0,1,2.34-.2,3.94,3.94,0,0,1,2.74.84,2.91,2.91,0,0,1,.87,2.2,3.11,3.11,0,0,1-.76,2.21,3.85,3.85,0,0,1-3,1.17,4.08,4.08,0,0,1-.91-.08v4.24h-1.3Zm1.3,5.07a3.22,3.22,0,0,0,.93.09,2.14,2.14,0,0,0,2.42-2.25,2,2,0,0,0-2.26-2.07,5.41,5.41,0,0,0-1.09.09Z" transform="translate(-57.63 -65.09)"/><path class="cls-11" d="M97.81,117.51c0-.81,0-1.58-.06-2.23h1.15l.06,1.4h0a2,2,0,0,1,2.26-1.53v1.28a1.44,1.44,0,0,0-.39,0,1.83,1.83,0,0,0-1.72,1.7,4.15,4.15,0,0,0,0,.65v4.07h-1.3Z" transform="translate(-57.63 -65.09)"/><path class="cls-11" d="M105.11,123c-1.83,0-3.26-1.4-3.26-3.88s1.52-4,3.36-4,3.26,1.47,3.26,3.88c0,2.84-1.75,4-3.35,4Zm.06-1c1.22,0,2-1.39,2-2.95,0-1.25-.51-2.92-2-2.92s-2,1.59-2,2.95c0,1.53.73,2.92,2,2.92Z" transform="translate(-57.63 -65.09)"/><path class="cls-11" d="M110.07,111.83h1.3v4.55h0a2.43,2.43,0,0,1,2.26-1.26c1.66,0,2.84,1.5,2.84,3.84,0,2.71-1.52,4-3,4a2.35,2.35,0,0,1-2.22-1.33h0l-.06,1.17H110c0-.5.06-1.28.06-1.9Zm1.3,8.08a2.31,2.31,0,0,0,0,.48,1.85,1.85,0,0,0,1.78,1.53c1.29,0,2-1.22,2-2.9,0-1.53-.65-2.84-2-2.84a2,2,0,0,0-1.78,1.59,2.81,2.81,0,0,0-.06.55Z" transform="translate(-57.63 -65.09)"/><path class="cls-11" d="M118.74,114a.78.78,0,0,1-.79-.83.8.8,0,0,1,.81-.84.79.79,0,0,1,.81.84.78.78,0,0,1-.81.83Zm-.62,8.79v-7.55h1.3v7.55Z" transform="translate(-57.63 -65.09)"/><path class="cls-11" d="M124.27,123c-1.83,0-3.26-1.4-3.26-3.88s1.52-4,3.36-4,3.26,1.47,3.26,3.88c0,2.84-1.75,4-3.35,4Zm.06-1c1.22,0,2-1.39,2-2.95,0-1.25-.51-2.92-2-2.92s-2,1.59-2,2.95c0,1.53.73,2.92,2,2.92Z" transform="translate(-57.63 -65.09)"/><path class="cls-11" d="M130.81,113.48v1.79h1.8v1h-1.8v4.2c0,1,.29,1.4,1,1.4a2.69,2.69,0,0,0,.7-.08l0,1a3.21,3.21,0,0,1-1.12.17,1.78,1.78,0,0,1-1.38-.55,2.91,2.91,0,0,1-.5-1.95v-4.2h-1.08v-1h1.08v-1.36Z" transform="translate(-57.63 -65.09)"/><path class="cls-11" d="M134.64,114a.78.78,0,0,1-.79-.83.8.8,0,0,1,.81-.84.79.79,0,0,1,.81.84.78.78,0,0,1-.81.83Zm-.62,8.79v-7.55h1.3v7.55Z" transform="translate(-57.63 -65.09)"/><path class="cls-11" d="M142.24,122.58a4.3,4.3,0,0,1-1.88.39c-2.06,0-3.44-1.48-3.44-3.85a3.69,3.69,0,0,1,3.72-4,3.62,3.62,0,0,1,1.64.36l-.29,1a3,3,0,0,0-1.36-.31c-1.57,0-2.37,1.34-2.37,2.88,0,1.75,1,2.82,2.36,2.82a3.36,3.36,0,0,0,1.43-.31Z" transform="translate(-57.63 -65.09)"/><path class="cls-11" d="M146.58,121.25a4.11,4.11,0,0,0,2.14.61c1.3,0,2.06-.72,2.06-1.79s-.57-1.54-1.8-2.11c-1.46-.59-2.53-1.53-2.53-3a2.89,2.89,0,0,1,3.19-2.82,4.1,4.1,0,0,1,2,.47l-.34,1.09a3.47,3.47,0,0,0-1.75-.45c-1.32,0-1.84.83-1.84,1.54,0,1,.6,1.47,1.92,2.06,1.61.76,2.4,1.65,2.4,3.09,0,1.67-1.19,3-3.44,3a4.79,4.79,0,0,1-2.39-.61Z" transform="translate(-57.63 -65.09)"/><path class="cls-11" d="M159.46,120.77c0,.8,0,1.47.06,2.06h-1.15l-.08-1.09h0A2.55,2.55,0,0,1,156,123c-1.22,0-2.36-.76-2.36-3.18v-4.52H155v4.3c0,1.36.37,2.31,1.47,2.31A1.73,1.73,0,0,0,158,120.7a2.39,2.39,0,0,0,.11-.7v-4.73h1.3Z" transform="translate(-57.63 -65.09)"/><path class="cls-11" d="M161.55,117.71c0-1,0-1.78-.06-2.43h1.16l.08,1.19h0a2.59,2.59,0,0,1,2.34-1.34c1.67,0,2.88,1.5,2.88,3.84,0,2.74-1.5,4-3.08,4a2.25,2.25,0,0,1-2-1.09h0v4h-1.3Zm1.3,2.14a2.34,2.34,0,0,0,.06.58,1.81,1.81,0,0,0,1.75,1.5c1.32,0,2-1.25,2-2.9s-.67-2.82-2-2.82a1.93,1.93,0,0,0-1.77,1.59,2.26,2.26,0,0,0-.08.56Z" transform="translate(-57.63 -65.09)"/><path class="cls-11" d="M169.58,117.71c0-1,0-1.78-.06-2.43h1.16l.08,1.19h0a2.59,2.59,0,0,1,2.34-1.34c1.67,0,2.88,1.5,2.88,3.84,0,2.74-1.5,4-3.08,4a2.25,2.25,0,0,1-2-1.09h0v4h-1.3Zm1.3,2.14a2.34,2.34,0,0,0,.06.58,1.81,1.81,0,0,0,1.75,1.5c1.32,0,2-1.25,2-2.9s-.67-2.82-2-2.82a1.93,1.93,0,0,0-1.77,1.59,2.22,2.22,0,0,0-.08.56Z" transform="translate(-57.63 -65.09)"/><path class="cls-11" d="M177.63,111.83h1.3v11h-1.3Z" transform="translate(-57.63 -65.09)"/><path class="cls-11" d="M181.84,119.25c0,2,1.12,2.68,2.33,2.68a4.17,4.17,0,0,0,1.83-.36l.22,1A5.29,5.29,0,0,1,184,123c-2.16,0-3.41-1.51-3.41-3.8s1.25-4,3.24-4c2.17,0,2.79,2,2.79,3.48a3.4,3.4,0,0,1,0,.65Zm3.5-1c0-1.06-.4-2.21-1.66-2.21s-1.74,1.23-1.83,2.21Z" transform="translate(-57.63 -65.09)"/><path class="cls-11" d="M188.18,117.29c0-.81,0-1.39-.06-2h1.15l.06,1.14h0a2.38,2.38,0,0,1,2.17-1.29,2,2,0,0,1,2,1.4h0a2.89,2.89,0,0,1,.81-1,2.32,2.32,0,0,1,1.46-.45c1,0,2.28.69,2.28,3.09v4.62h-1.29v-4.4c0-1.33-.42-2.21-1.46-2.21a1.6,1.6,0,0,0-1.46,1.2,2.35,2.35,0,0,0-.09.69v4.72h-1.29v-4.65c0-1.09-.42-2-1.4-2a1.66,1.66,0,0,0-1.52,1.33,2.35,2.35,0,0,0-.09.67v4.62h-1.29Z" transform="translate(-57.63 -65.09)"/><path class="cls-11" d="M200.91,119.25c0,2,1.12,2.68,2.33,2.68a4.17,4.17,0,0,0,1.83-.36l.22,1A5.29,5.29,0,0,1,203,123c-2.16,0-3.41-1.51-3.41-3.8s1.26-4,3.24-4c2.17,0,2.79,2,2.79,3.48a3.4,3.4,0,0,1,0,.65Zm3.5-1c0-1.06-.4-2.21-1.66-2.21s-1.74,1.23-1.83,2.21Z" transform="translate(-57.63 -65.09)"/><path class="cls-11" d="M207.27,117.29c0-.81,0-1.39-.06-2h1.15l.08,1.14h0a2.52,2.52,0,0,1,2.25-1.29c1,0,2.39.67,2.39,3v4.68h-1.3v-4.51c0-1.12-.37-2.11-1.52-2.11a1.74,1.74,0,0,0-1.63,1.36,2.6,2.6,0,0,0-.08.64v4.62h-1.3Z" transform="translate(-57.63 -65.09)"/><path class="cls-11" d="M216.68,113.48v1.79h1.8v1h-1.8v4.2c0,1,.29,1.4,1,1.4a2.69,2.69,0,0,0,.7-.08l0,1a3.21,3.21,0,0,1-1.12.17,1.78,1.78,0,0,1-1.38-.55,2.91,2.91,0,0,1-.5-1.95v-4.2H214.3v-1h1.08v-1.36Z" transform="translate(-57.63 -65.09)"/></svg>